<svg width="40" height="40" xmlns="http://www.w3.org/2000/svg"><g fill="none" fill-rule="evenodd"><rect fill="#6181B6" width="40" height="40" rx="2"/><g fill="#FFF" fill-rule="nonzero"><path d="M7.357 14.927h4.417c1.296.011 2.235.405 2.818 1.18.582.774.774 1.833.577 3.174a6.33 6.33 0 0 1-.511 1.805 5.377 5.377 0 0 1-1.055 1.596c-.55.601-1.137.983-1.763 1.145a7.733 7.733 0 0 1-1.945.243H7.917l-.626 3.296H5l2.357-12.44m1.928 1.979l-.989 5.204c.066.012.132.018.198.018h.23c1.055.011 1.935-.099 2.638-.33.703-.243 1.175-1.087 1.417-2.533.198-1.214 0-1.914-.593-2.1-.583-.184-1.313-.27-2.192-.26a4.384 4.384 0 0 1-.38.018H9.27l.016-.017M17.522 12h2.182l-.617 3.309h1.962c1.075.023 1.877.266 2.404.728.538.461.696 1.34.475 2.633l-1.06 5.769h-2.215l1.013-5.51c.105-.577.073-.987-.095-1.23-.169-.242-.533-.363-1.092-.363l-1.755-.017-1.297 7.12h-2.183L17.522 12M27.113 14.927h4.417c1.296.011 2.236.405 2.818 1.18.582.774.775 1.833.577 3.174a6.33 6.33 0 0 1-.511 1.805 5.377 5.377 0 0 1-1.055 1.596c-.55.601-1.137.983-1.763 1.145a7.733 7.733 0 0 1-1.945.243h-1.978l-.626 3.296h-2.29l2.356-12.44m1.928 1.979l-.989 5.204c.066.012.132.018.198.018h.23c1.056.011 1.935-.099 2.638-.33.703-.243 1.175-1.087 1.417-2.533.198-1.214 0-1.914-.593-2.1-.583-.184-1.313-.27-2.192-.26a4.384 4.384 0 0 1-.38.018h-.345l.016-.017"/></g></g></svg>